<svg width="18" height="20" viewBox="0 0 18 20" fill="none" xmlns="http://www.w3.org/2000/svg">
<path fill-rule="evenodd" clip-rule="evenodd" d="M0 9C0 4.02944 4.02944 0 9 0C13.9706 0 18 4.02944 18 9V17C18 18.6569 16.6569 20 15 20H14C12.3431 20 11 18.6569 11 17V14C11 12.3431 12.3431 11 14 11H15C15.3506 11 15.6872 11.0602 16 11.1707V9C16 5.13401 12.866 2 9 2C5.13401 2 2 5.13401 2 9V11.1707C2.31278 11.0602 2.64936 11 3 11H4C5.65685 11 7 12.3431 7 14V17C7 18.6569 5.65685 20 4 20H3C1.34315 20 0 18.6569 0 17V9ZM16 14C16 13.4477 15.5523 13 15 13H14C13.4477 13 13 13.4477 13 14V17C13 17.5523 13.4477 18 14 18H15C15.5523 18 16 17.5523 16 17V14ZM2 17V14C2 13.4477 2.44772 13 3 13H4C4.55228 13 5 13.4477 5 14V17C5 17.5523 4.55228 18 4 18H3C2.44772 18 2 17.5523 2 17Z" fill="#667085"/>
</svg>
