<svg width="18" height="18" viewBox="0 0 18 18" fill="none" xmlns="http://www.w3.org/2000/svg">
<path fill-rule="evenodd" clip-rule="evenodd" d="M0 2.5C0 1.11929 1.11929 0 2.5 0H5.5C6.88071 0 8 1.11929 8 2.5V5.5C8 6.88071 6.88071 8 5.5 8H2.5C1.11929 8 0 6.88071 0 5.5V2.5ZM2.5 2H5.5C5.77614 2 6 2.22386 6 2.5V5.5C6 5.77614 5.77614 6 5.5 6H2.5C2.22386 6 2 5.77614 2 5.5V2.5C2 2.22386 2.22386 2 2.5 2Z" fill="#667085"/>
<path fill-rule="evenodd" clip-rule="evenodd" d="M10 2.5C10 1.11929 11.1193 0 12.5 0H15.5C16.8807 0 18 1.11929 18 2.5V5.5C18 6.88071 16.8807 8 15.5 8H12.5C11.1193 8 10 6.88071 10 5.5V2.5ZM12.5 2H15.5C15.7761 2 16 2.22386 16 2.5V5.5C16 5.77614 15.7761 6 15.5 6H12.5C12.2239 6 12 5.77614 12 5.5V2.5C12 2.22386 12.2239 2 12.5 2Z" fill="#667085"/>
<path fill-rule="evenodd" clip-rule="evenodd" d="M12.5 10C11.1193 10 10 11.1193 10 12.5V15.5C10 16.8807 11.1193 18 12.5 18H15.5C16.8807 18 18 16.8807 18 15.5V12.5C18 11.1193 16.8807 10 15.5 10H12.5ZM15.5 12H12.5C12.2239 12 12 12.2239 12 12.5V15.5C12 15.7761 12.2239 16 12.5 16H15.5C15.7761 16 16 15.7761 16 15.5V12.5C16 12.2239 15.7761 12 15.5 12Z" fill="#667085"/>
<path fill-rule="evenodd" clip-rule="evenodd" d="M0 12.5C0 11.1193 1.11929 10 2.5 10H5.5C6.88071 10 8 11.1193 8 12.5V15.5C8 16.8807 6.88071 18 5.5 18H2.5C1.11929 18 0 16.8807 0 15.5V12.5ZM2.5 12H5.5C5.77614 12 6 12.2239 6 12.5V15.5C6 15.7761 5.77614 16 5.5 16H2.5C2.22386 16 2 15.7761 2 15.5V12.5C2 12.2239 2.22386 12 2.5 12Z" fill="#667085"/>
</svg>
