<svg width="20" height="20" viewBox="0 0 20 20" fill="none" xmlns="http://www.w3.org/2000/svg">
<path fill-rule="evenodd" clip-rule="evenodd" d="M0.730337 4.05271C1.01293 3.40795 1.85555 3.24926 2.35333 3.74704L5.18673 6.58043L6.24739 6.22688L6.60094 5.16622L3.76754 2.33282C3.26976 1.83504 3.42846 0.992427 4.07322 0.709829C6.45215 -0.332858 9.33071 0.117814 11.2806 2.0677C13.0548 3.84187 13.5878 6.38489 12.884 8.62082L18.6459 14.3827C19.8174 15.5543 19.8174 17.4538 18.6459 18.6253C17.4743 19.7969 15.5748 19.7969 14.4032 18.6253L8.64133 12.8635C6.4054 13.5672 3.86238 13.0343 2.08821 11.2601C0.138322 9.3102 -0.31235 6.43164 0.730337 4.05271ZM2.19115 6.41329C2.12283 7.64762 2.56058 8.90404 3.50242 9.84588C4.85046 11.1939 6.84291 11.5093 8.49272 10.7862L9.11829 10.512L15.8174 17.2111C16.208 17.6017 16.8411 17.6017 17.2316 17.2111C17.6222 16.8206 17.6222 16.1874 17.2316 15.7969L10.5325 9.09778L10.8067 8.47221C11.5298 6.8224 11.2144 4.82995 9.86638 3.48191C8.92454 2.54008 7.66813 2.10232 6.43379 2.17065L8.01515 3.752C8.55082 4.28767 8.73786 5.08 8.49831 5.79867L8.14475 6.85933C7.94568 7.45654 7.47705 7.92517 6.87984 8.12424L5.81918 8.4778C5.10051 8.71735 4.30818 8.53031 3.77251 7.99464L2.19115 6.41329Z" fill="#667085"/>
</svg>
