<svg width="20" height="20" viewBox="0 0 20 20" fill="none" xmlns="http://www.w3.org/2000/svg">
<path fill-rule="evenodd" clip-rule="evenodd" d="M14 10C14 12.2091 12.2091 14 10 14C7.79086 14 6 12.2091 6 10C6 7.79086 7.79086 6 10 6C12.2091 6 14 7.79086 14 10ZM12 10C12 11.1046 11.1046 12 10 12C8.89543 12 8 11.1046 8 10C8 8.89543 8.89543 8 10 8C11.1046 8 12 8.89543 12 10Z" fill="#667085"/>
<path fill-rule="evenodd" clip-rule="evenodd" d="M1.51026 11.4144L2.16603 11.0204C2.12293 10.6863 2.1007 10.3458 2.1007 10C2.1007 9.65427 2.12292 9.31374 2.16602 8.97974L1.51163 8.58655C0.564833 8.01766 0.258479 6.78894 0.827374 5.84214L2.0201 3.85712C2.58899 2.91032 3.8177 2.60397 4.7645 3.17286L5.41911 3.56619C5.86036 3.25176 6.33533 2.9816 6.83754 2.76217V2C6.83754 0.895431 7.73297 0 8.83754 0H11.1533C12.2579 0 13.1533 0.895431 13.1533 2V2.76217C13.6556 2.98161 14.1305 3.25178 14.5718 3.56622L15.2279 3.17199C16.1747 2.6031 17.4034 2.90945 17.9723 3.85625L19.165 5.84127C19.7339 6.78807 19.4276 8.01679 18.4808 8.58568L17.8249 8.9798C17.868 9.31378 17.8902 9.65429 17.8902 10C17.8902 10.3457 17.868 10.6863 17.8249 11.0203L18.4792 11.4135C19.426 11.9824 19.7324 13.2111 19.1635 14.1579L17.9708 16.1429C17.4019 17.0897 16.1732 17.3961 15.2264 16.8272L14.5717 16.4338C14.1305 16.7483 13.6555 17.0184 13.1533 17.2378V18C13.1533 19.1046 12.2579 20 11.1533 20H8.83754C7.73297 20 6.83754 19.1046 6.83754 18V17.2378C6.33536 17.0184 5.86042 16.7483 5.4192 16.4339L4.76314 16.8281C3.81634 17.397 2.58762 17.0906 2.01873 16.1438L0.826006 14.1588C0.25711 13.212 0.563462 11.9833 1.51026 11.4144ZM7.63829 4.59488L8.83754 4.0709V2L11.1533 2V4.0709L12.3526 4.59488C12.7268 4.75839 13.0813 4.95997 13.4112 5.195L14.4785 5.95556L16.258 4.88633L17.4507 6.87135L15.674 7.93891L15.8413 9.23572C15.8735 9.48505 15.8902 9.74008 15.8902 10C15.8902 10.2599 15.8735 10.515 15.8413 10.7644L15.674 12.0612L17.4492 13.1278L16.2565 15.1129L14.4784 14.0445L13.4111 14.805C13.0813 15.0401 12.7268 15.2416 12.3526 15.4051L11.1533 15.9291V18H8.83754V15.9291L7.63829 15.4051C7.26408 15.2416 6.9096 15.0401 6.5798 14.8051L5.51249 14.0446L3.73306 15.1137L2.54034 13.1287L4.31694 12.0612L4.14959 10.7644C4.11741 10.515 4.1007 10.26 4.1007 10C4.1007 9.74007 4.1174 9.48502 4.14958 9.23568L4.31691 7.93886L2.54171 6.87221L3.73443 4.88719L5.51242 5.95552L6.57974 5.19497C6.90956 4.95995 7.26406 4.75839 7.63829 4.59488Z" fill="#667085"/>
</svg>
