<svg width="16" height="20" viewBox="0 0 16 20" fill="none" xmlns="http://www.w3.org/2000/svg">
<path d="M5 5C4.44772 5 4 5.44772 4 6C4 6.55228 4.44772 7 5 7H7C7.55228 7 8 6.55228 8 6C8 5.44772 7.55228 5 7 5H5Z" fill="#667085"/>
<path d="M4 10C4 9.44771 4.44772 9 5 9H11C11.5523 9 12 9.44771 12 10C12 10.5523 11.5523 11 11 11H5C4.44772 11 4 10.5523 4 10Z" fill="#667085"/>
<path d="M5 13C4.44772 13 4 13.4477 4 14C4 14.5523 4.44772 15 5 15H11C11.5523 15 12 14.5523 12 14C12 13.4477 11.5523 13 11 13H5Z" fill="#667085"/>
<path fill-rule="evenodd" clip-rule="evenodd" d="M3 0C1.34315 0 0 1.34315 0 3V17C0 18.6569 1.34315 20 3 20H13C14.6569 20 16 18.6569 16 17V5.24264C16 4.44699 15.6839 3.68393 15.1213 3.12132L12.8787 0.87868C12.3161 0.316071 11.553 0 10.7574 0H3ZM3 2H10V4.9C10 5.50751 10.4925 6 11.1 6H14V17C14 17.5523 13.5523 18 13 18H3C2.44772 18 2 17.5523 2 17V3C2 2.44772 2.44771 2 3 2ZM12 2.82843L13.1716 4H12V2.82843Z" fill="#667085"/>
</svg>
