<svg width="16" height="20" viewBox="0 0 16 20" fill="none" xmlns="http://www.w3.org/2000/svg">
<path d="M12.2366 8.27299C12.6381 8.6522 12.6562 9.28511 12.277 9.68663L7.70572 14.5268C7.52495 14.7182 7.22673 14.7366 7.02376 14.5689L4.36313 12.371C3.93735 12.0192 3.87733 11.3889 4.22908 10.9631C4.58082 10.5373 5.21114 10.4773 5.63692 10.8291L7.21544 12.1331L10.8229 8.31338C11.2022 7.91186 11.8351 7.89378 12.2366 8.27299Z" fill="#667085"/>
<path fill-rule="evenodd" clip-rule="evenodd" d="M6 0C4.89543 0 4 0.89543 4 2L3 2C1.34315 2 0 3.34315 0 5V17C0 18.6569 1.34315 20 3 20H13C14.6569 20 16 18.6569 16 17V5C16 3.34315 14.6569 2 13 2H12C12 0.895431 11.1046 0 10 0H6ZM10 2H6V4H10V2ZM4 4H3C2.44772 4 2 4.44772 2 5V17C2 17.5523 2.44772 18 3 18H13C13.5523 18 14 17.5523 14 17V5C14 4.44772 13.5523 4 13 4H12C12 5.10457 11.1046 6 10 6H6C4.89543 6 4 5.10457 4 4Z" fill="#667085"/>
</svg>
