<svg width="16" height="20" viewBox="0 0 16 20" fill="none" xmlns="http://www.w3.org/2000/svg">
<path fill-rule="evenodd" clip-rule="evenodd" d="M12 8C12 10.2091 10.2091 12 8 12C5.79086 12 4 10.2091 4 8C4 5.79086 5.79086 4 8 4C10.2091 4 12 5.79086 12 8ZM10 8C10 9.10457 9.10457 10 8 10C6.89543 10 6 9.10457 6 8C6 6.89543 6.89543 6 8 6C9.10457 6 10 6.89543 10 8Z" fill="#667085"/>
<path fill-rule="evenodd" clip-rule="evenodd" d="M16 7.99998C15.9999 14.8707 10.0992 18.791 8.43323 19.7609C8.16121 19.9192 7.83878 19.9192 7.56676 19.7609C5.90082 18.791 0 14.8707 0 7.99998C0 3.99998 3 0 8 0C13 0 16 3.99998 16 7.99998ZM2 7.99998C2 4.93718 4.26481 2 8 2C11.7352 2 14 4.9372 14 7.99995C14 11.2825 12.3677 13.8038 10.5857 15.5858C9.70017 16.4714 8.80926 17.1401 8.14058 17.5859C8.09244 17.618 8.04554 17.6489 7.99999 17.6785C7.95444 17.6489 7.90755 17.618 7.8594 17.5859C7.19071 17.1401 6.29979 16.4714 5.41422 15.5858C3.63221 13.8038 2 11.2825 2 7.99998Z" fill="#667085"/>
</svg>
