<svg width="18" height="20" viewBox="0 0 18 20" fill="none" xmlns="http://www.w3.org/2000/svg">
<path fill-rule="evenodd" clip-rule="evenodd" d="M0.000221658 5.02191V14.9001C0.000221658 14.9161 0.000596017 14.932 0.00133644 14.9477C-0.0186334 15.3327 0.1862 15.7111 0.553006 15.8945L8.10579 19.6709C8.30557 19.7708 8.51789 19.8352 8.73386 19.8642C8.81867 19.8876 8.90799 19.9001 9.00022 19.9001C9.09246 19.9001 9.18178 19.8876 9.26658 19.8642C9.48255 19.8352 9.69487 19.7708 9.89465 19.6709L17.4474 15.8945C17.8142 15.7111 18.0191 15.3327 17.9991 14.9478C17.9998 14.932 18.0002 14.9161 18.0002 14.9001V5.02174L18.0004 5.0001C18.0004 4.95917 17.9979 4.91841 17.9928 4.87805C17.9746 4.72839 17.9234 4.58893 17.8466 4.46721C17.8249 4.43277 17.8011 4.39956 17.7752 4.3678C17.7016 4.27731 17.6138 4.20207 17.5168 4.14371C17.4878 4.12619 17.4579 4.11009 17.4271 4.09553L9.89465 0.32931C9.33159 0.0477822 8.66885 0.0477822 8.10579 0.32931L0.573302 4.09555C0.542864 4.10995 0.513269 4.12583 0.484612 4.14311C0.386344 4.2021 0.297483 4.27842 0.223128 4.37035C0.197574 4.40192 0.174074 4.43491 0.152702 4.46909C0.0960518 4.55932 0.0534101 4.65923 0.0278268 4.76578C0.00903755 4.84346 -6.22323e-05 4.92209 3.2027e-07 5.0001L0.000221658 5.02191ZM10.0002 17.382L16.0002 14.382V6.61811L10.0002 9.61811V17.382ZM8.00022 9.61811L2.00022 6.61811V14.382L8.00022 17.382V9.61811ZM9.00022 7.88205L3.23634 5.0001L9.00022 2.11816L14.7641 5.0001L9.00022 7.88205Z" fill="#667085"/>
</svg>
