<svg width="16" height="20" viewBox="0 0 16 20" fill="none" xmlns="http://www.w3.org/2000/svg">
<path fill-rule="evenodd" clip-rule="evenodd" d="M0 3C0 1.34315 1.34315 0 3 0H10.7574C11.553 0 12.3161 0.316071 12.8787 0.87868L15.1213 3.12132C15.6839 3.68393 16 4.44699 16 5.24264V17C16 18.6569 14.6569 20 13 20H3C1.34315 20 0 18.6569 0 17V3ZM10 2H3C2.44771 2 2 2.44772 2 3V17C2 17.5523 2.44772 18 3 18H13C13.5523 18 14 17.5523 14 17V6H11.1C10.4925 6 10 5.50751 10 4.9V2ZM13.1716 4L12 2.82843V4H13.1716Z" fill="#667085"/>
</svg>
